<svg xmlns="http://www.w3.org/2000/svg" width="55" height="55" fill="none"><g transform="translate(3.683 4.683)"><path d="M 34.805 26.898 C 34.957 26.89 35.102 26.963 35.187 27.089 C 35.495 27.552 35.817 28.005 36.154 28.448 C 36.674 29.18 37.295 29.835 37.999 30.393 C 39.842 31.423 41.809 32.218 43.851 32.756 C 45.925 33.379 47.668 33.76 47.668 33.76 C 47.886 33.812 48.028 34.022 47.995 34.244 C 47.962 34.466 47.765 34.625 47.541 34.612 C 39.695 35.112 31.839 35.438 23.978 35.59 C 16.09 35.59 0.415 34.612 0.415 34.612 C 0.208 34.603 0.036 34.449 0.005 34.245 C -0.026 34.04 0.092 33.842 0.287 33.773 C 0.287 33.773 2.031 33.392 4.117 32.756 C 6.157 32.22 8.119 31.426 9.957 30.393 C 10.659 29.833 11.28 29.179 11.802 28.448 C 12.362 27.724 12.769 27.089 12.769 27.089 C 12.851 26.966 12.99 26.895 13.138 26.898 Z M 12.502 28.982 C 11.925 29.792 11.23 30.512 10.44 31.117 C 8.952 32.121 6.484 32.96 4.372 33.595 L 3.277 33.887 C 6.331 34.078 17.056 34.751 23.927 34.751 C 30.797 34.751 41.536 34.078 44.589 33.887 C 44.08 33.747 44.093 33.773 43.495 33.595 C 41.37 32.96 38.915 32.134 37.426 31.117 C 36.63 30.519 35.935 29.798 35.365 28.982 C 34.856 28.321 34.614 27.902 34.487 27.762 L 13.367 27.762 C 13.278 27.902 13.011 28.321 12.502 28.982 Z" fill="rgb(122, 122, 122)"></path><path d="M 30.216 15.399 C 30.396 15.399 30.561 15.496 30.648 15.653 C 30.841 16.011 31.044 16.363 31.259 16.708 C 31.581 17.253 31.975 17.753 32.43 18.195 C 33.567 18.975 34.809 19.591 36.119 20.024 C 37.455 20.482 38.575 20.787 38.575 20.787 C 38.824 20.844 38.99 21.081 38.957 21.334 C 38.924 21.587 38.703 21.774 38.448 21.765 C 38.448 21.765 28.307 22.147 23.218 22.147 C 18.129 22.147 8.001 21.753 8.001 21.753 C 7.763 21.739 7.568 21.559 7.537 21.322 C 7.506 21.086 7.647 20.861 7.874 20.787 C 7.874 20.787 8.994 20.495 10.342 20.012 C 11.651 19.582 12.894 18.97 14.032 18.195 C 14.482 17.752 14.871 17.252 15.19 16.708 C 15.546 16.136 15.801 15.666 15.801 15.666 C 15.886 15.513 16.045 15.416 16.22 15.412 Z M 16.004 17.241 C 15.635 17.883 15.172 18.465 14.63 18.97 C 13.663 19.758 12.149 20.368 10.813 20.863 C 13.434 20.965 19.07 21.193 23.193 21.193 C 27.302 21.193 32.951 21.003 35.572 20.876 C 34.236 20.368 32.71 19.758 31.743 18.97 C 31.202 18.468 30.743 17.885 30.381 17.241 C 30.089 16.771 30 16.543 29.872 16.377 L 16.513 16.377 C 16.411 16.543 16.297 16.771 16.004 17.241 Z M 22.773 0.277 C 22.856 0.107 23.029 0 23.218 0 C 23.407 0 23.58 0.107 23.663 0.277 C 23.663 0.277 24.045 1.141 24.605 2.183 C 25.109 3.207 25.747 4.16 26.501 5.017 C 28.082 6.316 29.827 7.401 31.692 8.245 C 33.587 9.172 35.165 9.808 35.165 9.808 C 35.366 9.904 35.478 10.121 35.44 10.34 C 35.401 10.56 35.221 10.726 35 10.748 C 35 10.748 27.162 11.091 23.205 11.091 C 19.261 11.091 11.411 10.748 11.411 10.748 C 11.19 10.726 11.01 10.56 10.971 10.34 C 10.933 10.121 11.045 9.904 11.246 9.808 C 11.246 9.808 12.836 9.172 14.719 8.245 C 16.602 7.317 18.791 6.084 19.91 5.004 C 20.66 4.149 21.297 3.2 21.806 2.183 C 22.366 1.154 22.747 0.264 22.747 0.264 Z M 22.671 2.641 C 22.129 3.759 21.431 4.794 20.597 5.716 C 18.947 7.096 17.115 8.242 15.152 9.121 C 14.299 9.541 14.21 9.566 13.587 9.82 C 15.597 9.909 20.025 10.1 23.205 10.1 C 26.399 10.1 30.814 9.947 32.824 9.82 C 32.201 9.553 32.099 9.541 31.246 9.121 C 29.325 8.181 27.111 6.961 25.801 5.716 C 25.025 4.966 24.3 3.721 23.727 2.641 C 23.422 2.081 23.384 1.954 23.205 1.573 Z M 17.798 12.222 L 17.798 14.166 C 17.805 14.435 17.596 14.661 17.327 14.675 C 17.194 14.678 17.064 14.627 16.968 14.534 C 16.872 14.441 16.818 14.313 16.818 14.179 L 16.818 12.235 C 16.815 12.101 16.866 11.972 16.959 11.876 C 17.053 11.78 17.181 11.726 17.315 11.726 C 17.584 11.733 17.798 11.953 17.798 12.222 Z M 29.58 12.222 L 29.58 14.166 C 29.583 14.3 29.532 14.429 29.439 14.525 C 29.346 14.621 29.217 14.675 29.084 14.675 C 28.814 14.668 28.6 14.448 28.6 14.179 L 28.6 12.235 C 28.597 12.103 28.646 11.976 28.736 11.881 C 28.827 11.785 28.952 11.73 29.084 11.726 C 29.358 11.726 29.58 11.948 29.58 12.222 Z M 23.689 12.222 L 23.689 14.166 C 23.692 14.298 23.643 14.425 23.553 14.52 C 23.462 14.616 23.337 14.671 23.205 14.675 C 23.072 14.678 22.942 14.627 22.846 14.534 C 22.751 14.441 22.696 14.313 22.697 14.179 L 22.697 12.235 C 22.693 12.099 22.745 11.967 22.842 11.871 C 22.938 11.775 23.069 11.723 23.205 11.726 C 23.475 11.733 23.689 11.953 23.689 12.222 Z M 13.39 22.998 C 13.519 22.996 13.644 23.045 13.738 23.134 C 13.833 23.225 13.889 23.349 13.892 23.481 L 13.892 25.438 C 13.896 25.571 13.845 25.701 13.751 25.796 C 13.658 25.892 13.53 25.946 13.396 25.946 C 13.26 25.95 13.128 25.897 13.032 25.801 C 12.936 25.705 12.884 25.574 12.887 25.438 L 12.887 23.481 C 12.89 23.349 12.946 23.225 13.041 23.134 C 13.135 23.045 13.26 22.996 13.39 22.998 Z M 26.959 23.481 L 26.959 25.438 C 26.962 25.569 26.913 25.697 26.822 25.792 C 26.732 25.887 26.607 25.943 26.475 25.946 C 26.339 25.95 26.208 25.897 26.112 25.801 C 26.015 25.705 25.963 25.574 25.966 25.438 L 25.966 23.481 C 25.973 23.212 26.193 22.998 26.463 22.998 C 26.732 22.998 26.952 23.212 26.959 23.481 Z M 19.929 22.998 C 20.059 22.996 20.184 23.045 20.278 23.134 C 20.373 23.225 20.429 23.349 20.432 23.481 L 20.432 25.438 C 20.435 25.571 20.385 25.701 20.291 25.796 C 20.198 25.892 20.069 25.946 19.936 25.946 C 19.8 25.95 19.668 25.897 19.572 25.801 C 19.476 25.705 19.423 25.574 19.427 25.438 L 19.427 23.481 C 19.43 23.349 19.486 23.225 19.581 23.134 C 19.675 23.045 19.8 22.996 19.929 22.998 Z M 33.003 22.998 C 33.272 22.998 33.492 23.212 33.498 23.481 L 33.498 25.438 C 33.502 25.569 33.453 25.697 33.362 25.792 C 33.271 25.887 33.147 25.943 33.015 25.946 C 32.879 25.95 32.747 25.897 32.651 25.801 C 32.555 25.705 32.502 25.574 32.506 25.438 L 32.506 23.481 C 32.509 23.349 32.565 23.225 32.66 23.134 C 32.756 23.044 32.883 22.995 33.015 22.998 Z M 5.892 35.376 C 5.988 35.469 6.042 35.597 6.042 35.731 L 6.042 44.55 C 6.045 44.683 5.995 44.813 5.901 44.909 C 5.808 45.004 5.68 45.058 5.546 45.058 C 5.412 45.058 5.284 45.004 5.19 44.909 C 5.097 44.813 5.046 44.683 5.05 44.55 L 5.05 35.744 C 5.046 35.612 5.095 35.485 5.186 35.389 C 5.277 35.294 5.401 35.239 5.533 35.235 C 5.667 35.232 5.796 35.283 5.892 35.376 Z M 41.349 35.731 L 41.349 44.55 C 41.352 44.681 41.303 44.809 41.212 44.904 C 41.122 44.999 40.997 45.055 40.865 45.058 C 40.729 45.062 40.598 45.009 40.501 44.913 C 40.405 44.817 40.353 44.686 40.356 44.55 L 40.356 35.744 C 40.353 35.61 40.403 35.481 40.497 35.385 C 40.59 35.289 40.719 35.235 40.852 35.235 C 41.126 35.235 41.349 35.457 41.349 35.731 Z M 29.071 37.205 C 29.202 37.202 29.33 37.25 29.425 37.341 C 29.521 37.432 29.576 37.556 29.58 37.688 L 29.58 44.55 C 29.583 44.683 29.532 44.813 29.439 44.909 C 29.346 45.004 29.217 45.058 29.084 45.058 C 28.952 45.055 28.827 44.999 28.736 44.904 C 28.646 44.809 28.597 44.681 28.6 44.55 L 28.6 38.183 L 17.798 38.183 L 17.798 44.55 C 17.799 44.814 17.591 45.032 17.327 45.045 C 17.196 45.049 17.068 45 16.973 44.909 C 16.877 44.819 16.822 44.694 16.818 44.563 L 16.818 37.701 C 16.818 37.427 17.041 37.205 17.315 37.205 Z" fill="rgb(122, 122, 122)"></path><path d="M 23.073 36.984 C 22.939 36.981 22.81 37.031 22.714 37.125 C 22.618 37.218 22.564 37.346 22.564 37.48 L 22.564 44.342 C 22.567 44.473 22.623 44.598 22.718 44.689 C 22.814 44.779 22.941 44.828 23.073 44.825 C 23.342 44.818 23.557 44.598 23.556 44.329 L 23.556 37.467 C 23.55 37.203 23.337 36.991 23.073 36.984 Z" fill="rgb(122, 122, 122)"></path><path d="M 0.317 46.255 L 47.823 46.255" fill="transparent" stroke="rgb(122, 122, 122)" stroke-linecap="round"></path></g></svg>