<svg xmlns="http://www.w3.org/2000/svg" viewBox="0 0 55 55" fill="none"><g transform="translate(8.5 7)"><path d="M 29.665 11.518 C 29.843 11.518 30.008 11.609 30.105 11.758 L 34.081 17.858 C 34.191 18.02 34.202 18.229 34.109 18.402 C 34.017 18.575 33.837 18.683 33.641 18.682 L 5.649 18.682 C 5.452 18.684 5.27 18.577 5.177 18.404 C 5.084 18.231 5.095 18.02 5.205 17.858 L 9.189 11.758 C 9.286 11.609 9.451 11.518 9.629 11.518 Z M 6.621 17.626 L 32.665 17.626 L 29.373 12.582 L 9.909 12.582 Z" fill="rgb(122, 122, 122)"></path><path d="M 19.167 39.837 L 12.167 29.105 L 5.171 18.369 C 5.071 18.214 5.069 18.024 5.168 17.869 C 5.267 17.714 5.451 17.618 5.651 17.617 L 33.651 17.617 C 33.851 17.618 34.035 17.714 34.134 17.869 C 34.233 18.024 34.232 18.214 34.131 18.369 L 27.139 29.105 L 20.139 39.837 C 20.039 39.99 19.855 40.085 19.655 40.085 C 19.456 40.085 19.272 39.99 19.171 39.837 Z M 19.647 38.597 L 26.159 28.605 L 32.663 18.617 L 6.639 18.617 L 13.139 28.605 Z" fill="rgb(122, 122, 122)"></path><path d="M 9.763 11.563 C 9.621 11.604 9.504 11.694 9.436 11.812 C 9.368 11.931 9.357 12.069 9.403 12.195 L 19.419 39.651 C 19.464 39.778 19.564 39.883 19.696 39.944 C 19.828 40.004 19.982 40.016 20.123 39.975 C 20.413 39.892 20.575 39.616 20.487 39.355 L 10.467 11.887 C 10.422 11.761 10.322 11.656 10.19 11.595 C 10.058 11.534 9.905 11.523 9.763 11.563 Z" fill="rgb(122, 122, 122)"></path><path d="M 30.124 11.566 C 29.982 11.523 29.827 11.533 29.693 11.593 C 29.56 11.653 29.458 11.759 29.412 11.886 L 19.4 39.358 C 19.31 39.62 19.472 39.898 19.764 39.982 C 19.906 40.022 20.061 40.01 20.193 39.948 C 20.325 39.887 20.424 39.781 20.468 39.654 L 30.488 12.198 C 30.535 12.071 30.522 11.933 30.454 11.814 C 30.386 11.695 30.267 11.606 30.124 11.566 Z" fill="rgb(122, 122, 122)"></path><path d="M 19.61 11.641 L 11.586 17.661 C 11.474 17.745 11.4 17.87 11.38 18.009 C 11.361 18.148 11.397 18.289 11.482 18.401 C 11.566 18.513 11.691 18.587 11.83 18.606 C 11.969 18.626 12.11 18.589 12.222 18.505 L 20.246 12.497 C 20.358 12.412 20.432 12.285 20.451 12.146 C 20.47 12.006 20.432 11.864 20.346 11.753 C 20.262 11.64 20.137 11.565 19.998 11.545 C 19.859 11.525 19.718 11.561 19.606 11.645 Z" fill="rgb(122, 122, 122)"></path><path d="M 20.25 11.665 C 20.028 11.477 19.695 11.503 19.506 11.725 C 19.413 11.831 19.367 11.97 19.376 12.11 C 19.386 12.251 19.452 12.381 19.558 12.473 L 26.582 18.485 C 26.802 18.673 27.131 18.65 27.322 18.433 C 27.415 18.327 27.462 18.189 27.452 18.048 C 27.442 17.908 27.377 17.777 27.27 17.685 Z" fill="rgb(122, 122, 122)"></path><path d="M 3.72 0.286 C 3.812 0.108 3.996 -0.002 4.196 0 C 4.396 0.002 4.578 0.118 4.665 0.298 L 5.639 2.326 L 7.87 2.674 C 8.069 2.705 8.233 2.846 8.293 3.038 C 8.353 3.23 8.299 3.44 8.154 3.578 L 6.52 5.136 L 6.883 7.37 C 6.913 7.568 6.829 7.765 6.665 7.88 C 6.502 7.995 6.287 8.008 6.111 7.914 L 4.126 6.849 L 2.117 7.882 C 1.935 7.977 1.716 7.959 1.552 7.835 C 1.389 7.712 1.312 7.505 1.355 7.305 L 1.756 5.092 L 0.156 3.499 C 0.013 3.358 -0.036 3.148 0.027 2.957 C 0.091 2.767 0.258 2.629 0.457 2.602 L 2.696 2.294 L 3.712 0.287 Z M 3.518 3.002 C 3.438 3.159 3.285 3.265 3.111 3.286 L 1.664 3.486 L 2.704 4.519 C 2.825 4.641 2.879 4.814 2.85 4.983 L 2.589 6.423 L 3.889 5.756 C 4.048 5.682 4.232 5.692 4.382 5.781 L 5.664 6.471 L 5.432 5.033 C 5.402 4.859 5.462 4.681 5.59 4.56 L 6.644 3.556 L 5.209 3.327 C 5.035 3.302 4.885 3.193 4.808 3.035 L 4.172 1.718 Z" fill="rgb(122, 122, 122)"></path><path d="M 18.28 0.287 C 18.372 0.109 18.556 -0.002 18.756 0 C 18.956 0.003 19.138 0.118 19.225 0.298 L 20.199 2.326 L 22.43 2.675 C 22.629 2.705 22.793 2.846 22.853 3.038 C 22.913 3.23 22.859 3.44 22.714 3.578 L 21.08 5.136 L 21.443 7.37 C 21.473 7.568 21.388 7.765 21.225 7.88 C 21.062 7.996 20.847 8.008 20.671 7.914 L 18.686 6.849 L 16.676 7.882 C 16.495 7.977 16.275 7.959 16.112 7.836 C 15.949 7.712 15.872 7.505 15.915 7.305 L 16.316 5.092 L 14.716 3.499 C 14.573 3.358 14.523 3.148 14.587 2.957 C 14.651 2.767 14.818 2.629 15.017 2.602 L 17.256 2.294 L 18.272 0.287 Z M 18.078 3.002 C 17.998 3.159 17.845 3.265 17.67 3.286 L 16.224 3.486 L 17.263 4.519 C 17.385 4.641 17.439 4.814 17.409 4.983 L 17.149 6.423 L 18.449 5.756 C 18.608 5.682 18.792 5.692 18.942 5.781 L 20.224 6.471 L 19.992 5.033 C 19.962 4.859 20.022 4.681 20.15 4.56 L 21.204 3.556 L 19.769 3.327 C 19.595 3.302 19.444 3.193 19.368 3.035 L 18.732 1.718 Z" fill="rgb(122, 122, 122)"></path><path d="M 32.84 0.287 C 32.932 0.109 33.116 -0.002 33.316 0 C 33.516 0.003 33.698 0.118 33.785 0.298 L 34.759 2.326 L 36.99 2.675 C 37.189 2.705 37.353 2.847 37.413 3.038 C 37.473 3.23 37.419 3.44 37.274 3.578 L 35.64 5.136 L 36.003 7.37 C 36.033 7.568 35.948 7.766 35.785 7.881 C 35.622 7.996 35.407 8.009 35.231 7.914 L 33.246 6.849 L 31.236 7.882 C 31.055 7.977 30.835 7.959 30.672 7.836 C 30.509 7.712 30.432 7.505 30.475 7.305 L 30.876 5.092 L 29.276 3.499 C 29.133 3.358 29.083 3.148 29.147 2.957 C 29.211 2.767 29.378 2.629 29.577 2.602 L 31.816 2.294 L 32.832 0.287 Z M 32.638 3.002 C 32.558 3.159 32.405 3.265 32.23 3.286 L 30.784 3.486 L 31.823 4.519 C 31.945 4.641 31.999 4.814 31.969 4.983 L 31.709 6.423 L 33.009 5.756 C 33.168 5.682 33.352 5.692 33.502 5.781 L 34.784 6.471 L 34.552 5.033 C 34.522 4.859 34.582 4.681 34.71 4.56 L 35.764 3.556 L 34.329 3.327 C 34.155 3.303 34.004 3.193 33.928 3.035 L 33.292 1.718 Z" fill="rgb(122, 122, 122)"></path></g></svg>